<svg width="64" height="64" viewBox="0 0 64 64" fill="none" xmlns="http://www.w3.org/2000/svg">
<path d="M47.8027 0C56.7483 0.00010557 64 7.25269 64 16.1982V47.8027C64 56.7483 56.7483 63.9999 47.8027 64H16.1982C7.25259 64 0 56.7484 0 47.8027V16.1982C3.51963e-05 7.25262 7.25261 0 16.1982 0H47.8027ZM10.8242 34.8086C8.33711 34.8088 6.32044 36.8254 6.32031 39.3125V46.2227C6.32044 52.5498 11.4501 57.6805 17.7773 57.6807H35.8066C39.2734 57.6806 41.4402 53.9272 39.707 50.9248L31.7031 37.0605C30.8986 35.6672 29.4116 34.8086 27.8027 34.8086H10.8242ZM44.5898 34.8086C41.1231 34.8088 38.9562 38.5621 40.6895 41.5645L47.8223 53.9189C48.8826 55.7554 51.259 56.7641 53.0918 55.3896C55.8762 53.3013 57.6796 49.9729 57.6797 46.2227V39.3125C57.6796 36.8254 55.6629 34.8087 53.1758 34.8086H44.5898ZM16.1416 10.1074C15.078 8.2652 12.6909 7.25829 10.8594 8.64746C8.10281 10.7384 6.32038 14.0499 6.32031 17.7783V24.7744C6.32057 27.2614 8.33719 29.2782 10.8242 29.2783H19.4092C22.8758 29.2781 25.0426 25.5248 23.3096 22.5225L16.1416 10.1074ZM28.1426 6.32129C24.6759 6.32152 22.509 10.0748 24.2422 13.0771L32.2959 27.0264C33.1004 28.4196 34.5874 29.2783 36.1963 29.2783H53.1758C55.6628 29.2782 57.6794 27.2614 57.6797 24.7744V17.7783C57.6796 11.451 52.549 6.32129 46.2217 6.32129H28.1426Z" fill="black"/>
</svg>
