<svg width="177" height="24" viewBox="0 0 177 24" fill="none" xmlns="http://www.w3.org/2000/svg">
<path d="M162.645 22.72V0.384033H176.405V2.72003H165.333V10.24H176.021V12.576H165.333V20.384H176.405V22.72H162.645Z" fill="black"/>
<path d="M142.433 23.104C140.428 23.104 138.785 22.7413 137.505 22.016C136.225 21.2693 135.169 20.32 134.337 19.168L136.289 17.568C137.164 18.656 138.081 19.4667 139.041 20C140.023 20.5333 141.185 20.8 142.529 20.8C144.151 20.8 145.388 20.4267 146.241 19.68C147.095 18.9333 147.521 17.888 147.521 16.544C147.521 15.456 147.212 14.6133 146.593 14.016C145.975 13.3973 144.897 12.96 143.361 12.704L140.865 12.288C139.777 12.096 138.86 11.808 138.113 11.424C137.388 11.04 136.801 10.5813 136.353 10.048C135.905 9.49333 135.585 8.896 135.393 8.256C135.201 7.59467 135.105 6.912 135.105 6.208C135.105 4.16 135.777 2.61333 137.121 1.568C138.465 0.522667 140.279 0 142.561 0C144.353 0 145.857 0.298667 147.073 0.896C148.311 1.49333 149.303 2.336 150.049 3.424L148.161 5.056C147.543 4.24533 146.796 3.584 145.921 3.072C145.047 2.56 143.916 2.304 142.529 2.304C141.015 2.304 139.852 2.624 139.041 3.264C138.231 3.904 137.825 4.864 137.825 6.144C137.825 7.14667 138.124 7.968 138.721 8.608C139.34 9.22667 140.439 9.67467 142.017 9.952L144.417 10.368C145.505 10.56 146.423 10.848 147.169 11.232C147.916 11.616 148.513 12.0747 148.961 12.608C149.431 13.1413 149.761 13.7387 149.953 14.4C150.145 15.0613 150.241 15.7547 150.241 16.48C150.241 18.5493 149.559 20.1707 148.193 21.344C146.849 22.5173 144.929 23.104 142.433 23.104Z" fill="black"/>
<path d="M108.91 22.72V0.384033H117.038C119.107 0.384033 120.686 0.949366 121.774 2.08003C122.862 3.2107 123.406 4.78937 123.406 6.81603C123.406 8.8427 122.862 10.4214 121.774 11.552C120.686 12.6827 119.107 13.248 117.038 13.248H111.598V22.72H108.91ZM111.598 10.912H116.974C118.105 10.912 118.979 10.6347 119.598 10.08C120.238 9.50403 120.558 8.69337 120.558 7.64803V5.98403C120.558 4.9387 120.238 4.1387 119.598 3.58403C118.979 3.00803 118.105 2.72003 116.974 2.72003H111.598V10.912Z" fill="black"/>
<path d="M94.5548 22.72L92.6668 16.352H84.8268L82.9388 22.72H80.1548L87.0028 0.384033H90.5548L97.4028 22.72H94.5548ZM88.8908 3.23203H88.6028L85.4668 14.016H92.0268L88.8908 3.23203Z" fill="black"/>
<path d="M57.511 3.90403H57.287V22.72H54.855V0.384033H58.663L66.279 19.2H66.503V0.384033H68.935V22.72H65.127L57.511 3.90403Z" fill="black"/>
<path d="M33.6837 22.72V13.952L25.9717 0.384033H29.0437L32.2437 6.20803L34.9637 11.296H35.0917L37.8757 6.20803L41.0757 0.384033H44.0837L36.3717 13.952V22.72H33.6837Z" fill="black"/>
<path d="M8.096 23.104C6.09067 23.104 4.448 22.7413 3.168 22.016C1.888 21.2693 0.832 20.32 0 19.168L1.952 17.568C2.82667 18.656 3.744 19.4667 4.704 20C5.68533 20.5333 6.848 20.8 8.192 20.8C9.81333 20.8 11.0507 20.4267 11.904 19.68C12.7573 18.9333 13.184 17.888 13.184 16.544C13.184 15.456 12.8747 14.6133 12.256 14.016C11.6373 13.3973 10.56 12.96 9.024 12.704L6.528 12.288C5.44 12.096 4.52267 11.808 3.776 11.424C3.05067 11.04 2.464 10.5813 2.016 10.048C1.568 9.49333 1.248 8.896 1.056 8.256C0.864 7.59467 0.768 6.912 0.768 6.208C0.768 4.16 1.44 2.61333 2.784 1.568C4.128 0.522667 5.94133 0 8.224 0C10.016 0 11.52 0.298667 12.736 0.896C13.9733 1.49333 14.9653 2.336 15.712 3.424L13.824 5.056C13.2053 4.24533 12.4587 3.584 11.584 3.072C10.7093 2.56 9.57867 2.304 8.192 2.304C6.67733 2.304 5.51467 2.624 4.704 3.264C3.89333 3.904 3.488 4.864 3.488 6.144C3.488 7.14667 3.78667 7.968 4.384 8.608C5.00267 9.22667 6.10133 9.67467 7.68 9.952L10.08 10.368C11.168 10.56 12.0853 10.848 12.832 11.232C13.5787 11.616 14.176 12.0747 14.624 12.608C15.0933 13.1413 15.424 13.7387 15.616 14.4C15.808 15.0613 15.904 15.7547 15.904 16.48C15.904 18.5493 15.2213 20.1707 13.856 21.344C12.512 22.5173 10.592 23.104 8.096 23.104Z" fill="black"/>
</svg>
